HIERARCHY
ROOT SimulationBone
{
	OFFSET 0.000000 0.000000 0.000000
	CHANNELS 6 Xposition Yposition Zposition Zrotation Yrotation Xrotation 
	JOINT Hips
	{
		OFFSET 0.000000 0.000000 0.000000
		CHANNELS 6 Xposition Yposition Zposition Zrotation Yrotation Xrotation 
		JOINT LeftUpLeg
		{
			OFFSET 0.103459 1.857831 10.548505
			CHANNELS 3 Zrotation Yrotation Xrotation
			JOINT LeftLeg
			{
				OFFSET 43.500004 -0.000023 -0.000004
				CHANNELS 3 Zrotation Yrotation Xrotation
				JOINT LeftFoot
				{
					OFFSET 42.372204 0.000019 -0.000006
					CHANNELS 3 Zrotation Yrotation Xrotation
					JOINT LeftToe
					{
						OFFSET 17.300005 0.000001 -0.000002
						CHANNELS 3 Zrotation Yrotation Xrotation
						End Site
						{
							OFFSET 0.000000 0.000000 0.000000
						}
					}
				}
			}
		}
		JOINT RightUpLeg
		{
			OFFSET 0.103461 1.857828 -10.548505
			CHANNELS 3 Zrotation Yrotation Xrotation
			JOINT RightLeg
			{
				OFFSET 43.500046 -0.000019 0.000006
				CHANNELS 3 Zrotation Yrotation Xrotation
				JOINT RightFoot
				{
					OFFSET 42.372261 -0.000015 0.000011
					CHANNELS 3 Zrotation Yrotation Xrotation
					JOINT RightToe
					{
						OFFSET 17.299999 -0.000003 0.000002
						CHANNELS 3 Zrotation Yrotation Xrotation
						End Site
						{
							OFFSET 0.000000 0.000000 0.000000
						}
					}
				}
			}
		}
		JOINT Spine
		{
			OFFSET 6.901964 -2.603731 0.000000
			CHANNELS 3 Zrotation Yrotation Xrotation
			JOINT Spine1
			{
				OFFSET 12.588102 -0.000003 0.000000
				CHANNELS 3 Zrotation Yrotation Xrotation
				JOINT Spine2
				{
					OFFSET 12.343204 0.000002 0.000000
					CHANNELS 3 Zrotation Yrotation Xrotation
					JOINT Neck
					{
						OFFSET 25.832891 -0.000013 0.000001
						CHANNELS 3 Zrotation Yrotation Xrotation
						JOINT Head
						{
							OFFSET 11.766613 0.000015 -0.000000
							CHANNELS 3 Zrotation Yrotation Xrotation
							End Site
							{
								OFFSET 0.000000 0.000000 0.000000
							}
						}
					}
					JOINT LeftShoulder
					{
						OFFSET 19.745911 -1.480375 6.000106
						CHANNELS 3 Zrotation Yrotation Xrotation
						JOINT LeftArm
						{
							OFFSET 11.284125 -0.000012 -0.000024
							CHANNELS 3 Zrotation Yrotation Xrotation
							JOINT LeftForeArm
							{
								OFFSET 33.000050 0.000007 0.000027
								CHANNELS 3 Zrotation Yrotation Xrotation
								JOINT LeftHand
								{
									OFFSET 25.200005 0.000018 0.000002
									CHANNELS 3 Zrotation Yrotation Xrotation
									End Site
									{
										OFFSET 0.000000 0.000000 0.000000
									}
								}
							}
						}
					}
					JOINT RightShoulder
					{
						OFFSET 19.746092 -1.480375 -6.000074
						CHANNELS 3 Zrotation Yrotation Xrotation
						JOINT RightArm
						{
							OFFSET 11.284139 -0.000017 -0.000020
							CHANNELS 3 Zrotation Yrotation Xrotation
							JOINT RightForeArm
							{
								OFFSET 33.000099 0.000021 0.000012
								CHANNELS 3 Zrotation Yrotation Xrotation
								JOINT RightHand
								{
									OFFSET 25.199780 0.000137 0.000427
									CHANNELS 3 Zrotation Yrotation Xrotation
									End Site
									{
										OFFSET 0.000000 0.000000 0.000000
									}
								}
							}
						}
					}
				}
			}
		}
	}
}
MOTION
Frames: 5
Frame Time: 0.016667
321.353296 0.000000 -102.467927 180.000000 -64.617855 180.000000 2.358682 89.357300 -0.084531 96.156305 -3.590154 177.957250 166.357412 7.742497 168.131677 -19.349678 -2.563599 -2.813245 75.898366 4.457815 8.363948 21.454551 0.003093 0.000000 -171.775187 4.240103 -174.380617 -47.551312 2.221435 -11.095252 73.768282 9.124895 3.729251 21.454560 -0.003116 -0.000018 6.950145 -2.165591 0.461884 3.874023 -4.345281 0.852442 3.554977 -4.339906 0.878721 5.210288 -5.129378 -12.864608 -7.822833 11.691441 -17.409297 -167.899736 -70.701922 -13.782884 -0.563801 55.105705 34.627252 -26.728165 -16.830057 1.286922 15.527151 -5.425088 -3.887794 154.326975 78.003795 -24.710849 24.680357 -68.731187 -34.895977 -73.544320 11.207347 -2.411720 18.278869 -19.795128 -31.515014 
320.995819 0.000000 -101.275255 180.000000 -64.013757 180.000000 2.530759 89.202180 -0.424172 96.782095 -4.553838 176.299100 167.233746 8.800590 168.593177 -20.206491 -2.840514 -4.486212 77.382433 5.524619 8.491253 21.454551 0.003094 0.000001 -174.418206 6.831490 -175.406343 -53.352595 1.518901 -12.147180 70.905620 11.191055 6.867776 21.454559 -0.003114 -0.000017 6.991117 -2.426231 0.659816 3.946565 -4.873323 1.238512 3.627292 -4.865615 1.267986 5.175033 -5.250411 -11.842829 -7.116407 11.704420 -16.317811 -167.671523 -70.215520 -14.018626 -2.046526 54.583643 33.330444 -26.150647 -16.789373 1.275059 15.599342 -4.976204 -3.307761 152.074824 78.220406 -26.984347 24.800298 -68.968320 -34.126805 -75.712078 10.013459 -2.418858 17.225819 -22.194598 -27.087066 
320.644432 0.000000 -100.100112 180.000000 -63.430165 180.000000 2.698905 89.059464 -0.724814 97.460209 -5.444628 174.592386 168.234704 9.802798 168.946259 -20.814334 -3.182434 -6.064056 78.837751 6.451041 8.358370 21.454553 0.003095 0.000002 -177.419519 8.986597 -177.219093 -59.166465 0.699017 -12.835227 68.251621 13.350050 10.499123 21.454557 -0.003108 -0.000015 7.052284 -2.665150 0.863461 4.057839 -5.358623 1.635647 3.738352 -5.348515 1.668059 4.992885 -5.277239 -10.706325 -6.342839 11.543522 -15.040975 -167.655175 -69.689011 -14.035641 -3.584832 54.055413 31.966401 -25.752469 -16.850662 1.271873 15.740197 -4.669048 -2.772586 150.185571 78.418222 -28.888593 24.746585 -69.247262 -32.872889 -77.959484 8.782840 -2.431162 15.584907 -22.470465 -23.064260 
320.295686 0.000000 -98.944329 180.000000 -62.866078 180.000000 2.864473 88.916538 -0.984444 98.194338 -6.299716 173.014943 169.358438 10.861060 168.532102 -21.210362 -3.237643 -7.104984 80.149839 6.985260 8.121118 21.454552 0.003094 0.000001 179.439515 10.680510 -179.523428 -64.774119 -0.157699 -13.208161 66.258854 15.521530 14.507905 21.454555 -0.003101 -0.000017 7.144228 -2.893296 1.034946 4.230995 -5.822121 1.966867 3.911298 -5.810003 2.002096 4.668633 -5.167698 -9.543164 -5.611416 11.192663 -13.671976 -167.923564 -69.221649 -13.757930 -5.134403 53.556784 30.528311 -25.528972 -16.909836 1.271822 16.267556 -4.715543 -2.229361 149.410099 78.461523 -29.672202 24.226208 -69.383195 -31.033473 -80.226908 7.538436 -2.446153 13.462098 -20.368273 -19.624102 
319.946824 0.000000 -97.806896 180.000000 -62.324780 180.000000 2.992535 88.794281 -1.214406 98.847622 -6.998743 171.845257 170.464678 11.817199 167.770770 -21.490569 -3.175466 -7.667637 81.322977 7.220245 7.958816 21.454551 0.003092 0.000000 176.424811 11.747691 178.207791 -69.804013 -0.871351 -12.780244 65.830967 16.400102 17.200662 21.454557 -0.003098 -0.000018 7.240727 -3.070003 1.120669 4.417525 -6.180154 2.127307 4.097643 -6.167057 2.164721 4.416712 -4.879218 -8.347549 -5.059939 10.591251 -12.193401 -168.419787 -68.835538 -13.243819 -6.671435 53.102311 29.144358 -25.422071 -16.918404 1.270797 16.649375 -5.204205 -2.045813 149.644879 78.316569 -29.443710 23.214869 -69.318993 -28.936682 -82.150502 6.435738 -2.449467 10.872048 -15.620474 -16.838057 
